<svg width="80" height="29" viewBox="0 0 80 29" fill="none" xmlns="http://www.w3.org/2000/svg">
<path d="M12.4971 9.78127V22.2822C12.4971 23.2139 11.5714 23.7574 10.8 23.2915L1.00288 17.6234C1.00288 17.6234 0.925734 17.6234 0.925734 17.5458C0.617164 17.3905 0.462877 17.0799 0.308594 16.847L12.4971 9.78127Z" fill="#6246EA"/>
<path d="M12.4971 3.64712V1.47305C12.4971 0.541301 11.5714 -0.00221488 10.8 0.463658L0.61714 6.3647C0.231428 6.59763 0 6.98586 0 7.37409V10.9458L12.4971 3.64712Z" fill="#101838"/>
<path d="M12.4971 3.64725V9.78121L0.30857 16.8469C0 16.3034 0 15.6046 0 15.6046V10.8682L12.4971 3.64725Z" fill="#19E8FF"/>
<path d="M26.067 6.52769C28.2684 6.52769 30.1146 7.38535 31.6767 9.02921C33.239 10.6731 34.0203 12.7458 34.0203 15.1759C34.0203 17.6059 33.239 19.6786 31.6767 21.3225C30.1146 22.9663 28.2684 23.824 26.067 23.824C24.3336 23.824 22.8893 23.3664 21.7344 22.4196C21.3721 22.1226 20.7413 22.3586 20.7413 22.8289C20.7413 23.1022 20.5213 23.3237 20.2497 23.3237H17.0789C16.7878 23.3237 16.5518 23.0861 16.5518 22.7931V0.983143C16.5518 0.690101 16.7878 0.452545 17.0789 0.452545H20.2142C20.5053 0.452545 20.7413 0.690101 20.7413 0.983143V7.40333C20.7413 7.90938 21.429 8.16754 21.8259 7.85687C22.9337 6.98959 24.3474 6.52769 26.067 6.52769ZM22.0195 18.535C22.8716 19.3927 23.9368 19.8215 25.2859 19.8215C26.5641 19.8215 27.7003 19.3927 28.5524 18.535C29.4045 17.6774 29.8306 16.5338 29.8306 15.1759C29.8306 13.8179 29.4045 12.6743 28.5524 11.8166C27.7003 10.959 26.6351 10.5301 25.2859 10.5301C24.0078 10.5301 22.8716 10.959 22.0195 11.8166C21.1674 12.6743 20.7413 13.8179 20.7413 15.1759C20.7413 16.6053 21.1674 17.6774 22.0195 18.535Z" fill="#101838"/>
<path d="M39.8429 16.9457C39.8429 16.957 39.8444 16.9685 39.8475 16.9793C40.4194 19.0408 41.9799 20.0361 44.4587 20.0361C45.9079 20.0361 47.0217 19.5858 47.8496 18.7352C48.0326 18.5472 48.3183 18.4904 48.5442 18.623L51.0659 20.1036C51.3319 20.2598 51.4098 20.6124 51.2185 20.8552C49.6059 22.9014 47.3718 23.8956 44.4587 23.8956C41.7601 23.8956 39.559 23.1094 37.9256 21.394C36.2925 19.7502 35.5112 17.6775 35.5112 15.176C35.5112 12.6744 36.2925 10.6017 37.9256 8.95786C39.559 7.31402 41.6182 6.45633 44.1034 6.45633C46.5178 6.45633 48.5062 7.31402 49.9974 8.95786C51.5597 10.6017 52.3407 12.6744 52.3407 15.1045C52.3407 15.5213 52.303 15.9381 52.2548 16.3549C52.2245 16.6207 51.9992 16.8198 51.7331 16.8198H39.9679C39.899 16.8198 39.8429 16.8762 39.8429 16.9457ZM39.9385 13.0502C39.8303 13.3669 40.0823 13.675 40.4151 13.675H47.445C47.7748 13.675 48.0268 13.3715 47.9259 13.0551C47.6657 12.2376 47.22 11.6355 46.5889 11.1735C45.8076 10.6017 44.9555 10.3873 44.0326 10.3873C42.8964 10.3873 41.9731 10.6732 41.1922 11.245C40.6279 11.6994 40.1981 12.2892 39.9385 13.0502Z" fill="#101838"/>
<path d="M61.9978 3.46137C61.9978 3.76744 61.7404 4.00697 61.4363 4.01314C59.5384 4.05164 58.5894 4.99078 58.5894 6.88506C58.5894 6.96401 58.6528 7.02803 58.7313 7.02803H61.5417C61.8326 7.02803 62.0686 7.26558 62.0686 7.5586V10.5713C62.0686 10.8644 61.8326 11.1019 61.5417 11.1019H59.1166C58.8254 11.1019 58.5894 11.3395 58.5894 11.6325V22.9361C58.5894 23.2291 58.3534 23.4666 58.0622 23.4666H54.8558C54.5649 23.4666 54.3289 23.2291 54.3289 22.936V15.6075C54.3289 15.4683 54.3831 15.3347 54.48 15.2354L57.6364 12.0045C57.9641 11.669 57.7281 11.1019 57.2607 11.1019H54.8558C54.5649 11.1019 54.3289 10.8644 54.3289 10.5713V7.02803V6.88506C54.3289 4.59795 54.9679 2.81115 56.2461 1.59612C57.4397 0.46139 59.1908 -0.0499652 61.4994 0.00383487C61.779 0.0103535 61.9978 0.244059 61.9978 0.525665V3.46137Z" fill="#101838"/>
<path d="M68.9239 28.8986C68.5594 28.8986 68.3047 28.5351 68.4273 28.1896L69.8827 24.0884C69.9268 23.9643 69.9234 23.8282 69.8732 23.7064L63.2951 7.76216C63.1507 7.41274 63.406 7.02809 63.7818 7.02809H67.2467C67.4643 7.02809 67.6595 7.16279 67.7383 7.36714L71.3365 16.7233C71.5152 17.188 72.1742 17.1709 72.329 16.6976L75.3705 7.39284C75.4419 7.17519 75.6436 7.02809 75.8713 7.02809H79.2298C79.5903 7.02809 79.8444 7.38408 79.7294 7.72795L72.7703 28.5373C72.698 28.7532 72.4969 28.8986 72.2707 28.8986H68.9239Z" fill="#101838"/>
</svg>
