<svg width="32" height="32" viewBox="0 0 32 32" fill="none" xmlns="http://www.w3.org/2000/svg">
<path d="M20.4174 5.33337C20.3543 5.65738 20.3229 5.98673 20.3236 6.31679C20.3236 9.27811 22.7277 11.6787 25.6934 11.6787C26.0199 11.6771 26.3457 11.6458 26.6665 11.5851V22.2153C26.6665 26.6875 24.0285 29.3334 19.5497 29.3334H9.79498C5.30451 29.3334 2.6665 26.6875 2.6665 22.2153V12.4748C2.6665 8.00264 5.30451 5.33337 9.79498 5.33337H20.4174ZM20.5785 13.3257L20.4221 13.3355C20.1613 13.373 19.927 13.5144 19.7725 13.7275L16.56 17.8602L12.902 14.9802C12.6931 14.8175 12.4274 14.7457 12.1649 14.7809C11.9024 14.8162 11.6651 14.9555 11.5068 15.1675L7.56733 20.2485C7.42886 20.4211 7.35432 20.6361 7.35629 20.8573L7.35975 21.0044C7.39794 21.3911 7.66315 21.7252 8.04301 21.8451C8.47035 21.98 8.93501 21.8098 9.17359 21.4309L12.4682 17.1695L16.1262 20.0378C16.3343 20.2055 16.6017 20.2815 16.867 20.2484C17.1324 20.2153 17.3728 20.0759 17.5331 19.8622L21.3436 14.9451V14.9217C21.6698 14.4833 21.5866 13.8652 21.156 13.5285C20.9476 13.3676 20.6828 13.298 20.4221 13.3355L20.5785 13.3257Z" fill="#6246EA"/>
<path opacity="0.4" d="M25.9998 9.33335C27.8408 9.33335 29.3332 7.84097 29.3332 6.00002C29.3332 4.15907 27.8408 2.66669 25.9998 2.66669C24.1589 2.66669 22.6665 4.15907 22.6665 6.00002C22.6665 7.84097 24.1589 9.33335 25.9998 9.33335Z" fill="#6246EA"/>
</svg>
