<svg width="32" height="32" viewBox="0 0 32 32" fill="none" xmlns="http://www.w3.org/2000/svg">
<path opacity="0.4" d="M22.2339 2.66669H9.77762C5.23836 2.66669 2.6665 5.23854 2.6665 9.7778V22.2222C2.6665 26.7615 5.23836 29.3334 9.77762 29.3334H22.2339C26.7732 29.3334 29.3332 26.7615 29.3332 22.2222V9.7778C29.3332 5.23854 26.7732 2.66669 22.2339 2.66669Z" fill="#FF8C00"/>
<path d="M9.82488 12.492C9.22043 12.492 8.72266 12.9898 8.72266 13.6061V22.7676C8.72266 23.372 9.22043 23.8698 9.82488 23.8698C10.4412 23.8698 10.939 23.372 10.939 22.7676V13.6061C10.939 12.9898 10.4412 12.492 9.82488 12.492Z" fill="#FF8C00"/>
<path d="M16.047 8.11865C15.4426 8.11865 14.9448 8.61643 14.9448 9.23273V22.7675C14.9448 23.372 15.4426 23.8698 16.047 23.8698C16.6633 23.8698 17.1611 23.372 17.1611 22.7675V9.23273C17.1611 8.61643 16.6633 8.11865 16.047 8.11865Z" fill="#FF8C00"/>
<path d="M22.1863 17.3276C21.57 17.3276 21.0723 17.8254 21.0723 18.4416V22.7676C21.0723 23.372 21.57 23.8698 22.1745 23.8698C22.7908 23.8698 23.2886 23.372 23.2886 22.7676V18.4416C23.2886 17.8254 22.7908 17.3276 22.1863 17.3276Z" fill="#FF8C00"/>
</svg>
