<svg width="32" height="32" viewBox="0 0 32 32" fill="none" xmlns="http://www.w3.org/2000/svg">
<path d="M15.9319 19.3866C11.332 19.3866 7.45068 20.1382 7.45068 23.0392C7.45068 25.9414 11.357 26.6667 15.9319 26.6667C20.5319 26.6667 24.4132 25.915 24.4132 23.014C24.4132 20.1118 20.5068 19.3866 15.9319 19.3866Z" fill="#F7F8FA"/>
<path opacity="0.4" d="M15.9322 16.6227C19.047 16.6227 21.5446 14.1108 21.5446 10.978C21.5446 7.84409 19.047 5.33334 15.9322 5.33334C12.8174 5.33334 10.3198 7.84409 10.3198 10.978C10.3198 14.1108 12.8174 16.6227 15.9322 16.6227Z" fill="#F7F8FA"/>
<path opacity="0.4" d="M28.1171 12.2924C28.923 9.12241 26.5603 6.27545 23.5517 6.27545C23.2246 6.27545 22.9118 6.31147 22.6062 6.37271C22.5656 6.38232 22.5202 6.40273 22.4964 6.43875C22.4689 6.48438 22.4892 6.54562 22.519 6.58524C23.4228 7.86043 23.9421 9.41299 23.9421 11.0796C23.9421 12.6766 23.4658 14.1655 22.6301 15.4011C22.5441 15.5284 22.6205 15.7001 22.7721 15.7265C22.9823 15.7637 23.1972 15.7829 23.4168 15.7889C25.6076 15.8466 27.5739 14.4285 28.1171 12.2924Z" fill="#F7F8FA"/>
<path d="M30.4125 19.7559C30.0114 18.8962 29.0432 18.3066 27.5711 18.0172C26.8763 17.8467 24.996 17.6066 23.2469 17.639C23.2207 17.6426 23.2063 17.6606 23.204 17.6726C23.2004 17.6894 23.2075 17.7183 23.2422 17.7363C24.0504 18.1385 27.1748 19.888 26.782 23.5779C26.7653 23.7376 26.893 23.8757 27.0518 23.8516C27.8207 23.7412 29.7989 23.3137 30.4125 21.9821C30.7516 21.2785 30.7516 20.4608 30.4125 19.7559Z" fill="#F7F8FA"/>
<path opacity="0.4" d="M9.39311 6.37308C9.08867 6.31064 8.77468 6.27582 8.44756 6.27582C5.43901 6.27582 3.07634 9.12278 3.8834 12.2927C4.42541 14.4289 6.39172 15.8469 8.58247 15.7893C8.80214 15.7833 9.01823 15.7629 9.22716 15.7269C9.37878 15.7004 9.45519 15.5287 9.36923 15.4015C8.53352 14.1647 8.05717 12.677 8.05717 11.08C8.05717 9.41215 8.5777 7.8596 9.48146 6.58561C9.51011 6.54598 9.5316 6.48475 9.50295 6.43912C9.47907 6.4019 9.4349 6.38268 9.39311 6.37308Z" fill="#F7F8FA"/>
<path d="M4.4289 18.0169C2.95686 18.3063 1.98983 18.8958 1.58869 19.7556C1.24843 20.4604 1.24843 21.2781 1.58869 21.983C2.20234 23.3134 4.18058 23.742 4.94943 23.8513C5.10822 23.8753 5.23477 23.7384 5.21805 23.5775C4.82527 19.8889 7.94963 18.1394 8.75907 17.7371C8.7925 17.7179 8.79966 17.6903 8.79608 17.6723C8.79369 17.6603 8.78056 17.6423 8.7543 17.6399C7.00408 17.6062 5.12493 17.8464 4.4289 18.0169Z" fill="#F7F8FA"/>
</svg>
