<svg width="32" height="32" viewBox="0 0 32 32" fill="none" xmlns="http://www.w3.org/2000/svg">
<path d="M13.5368 7.40735C13.6047 7.54557 13.6496 7.69359 13.6697 7.84576L14.0409 13.3657L14.2252 16.1401C14.2271 16.4254 14.2719 16.7089 14.3581 16.9814C14.5806 17.5101 15.1161 17.8461 15.6986 17.8226L24.5749 17.242C24.9593 17.2357 25.3305 17.3795 25.6068 17.6417C25.8371 17.8602 25.9858 18.1461 26.0326 18.4535L26.0483 18.6402C25.681 23.7265 21.9454 27.9689 16.8696 29.064C11.7939 30.1591 6.58899 27.8457 4.08078 23.3798C3.35769 22.0824 2.90604 20.6563 2.75235 19.1853C2.68814 18.7498 2.65987 18.31 2.66781 17.87C2.65988 12.417 6.54313 7.70259 11.9789 6.56607C12.6332 6.4642 13.2745 6.81054 13.5368 7.40735Z" fill="#F4F6F6"/>
<path opacity="0.4" d="M17.1594 2.66775C23.2393 2.82243 28.3492 7.19437 29.3328 13.083L29.3234 13.1265L29.2965 13.1897L29.3003 13.3631C29.2863 13.5929 29.1976 13.814 29.0447 13.9926C28.8855 14.1787 28.6679 14.3054 28.4282 14.3545L28.2821 14.3746L18.041 15.0381C17.7004 15.0717 17.3612 14.9619 17.1079 14.7359C16.8968 14.5476 16.7618 14.2934 16.7237 14.0196L16.0363 3.79341C16.0244 3.75883 16.0244 3.72134 16.0363 3.68677C16.0457 3.40489 16.1698 3.13844 16.3808 2.94696C16.5919 2.75548 16.8723 2.65492 17.1594 2.66775Z" fill="#F4F6F6"/>
</svg>
